<svg width="171" height="33" viewBox="0 0 171 33" fill="none" xmlns="http://www.w3.org/2000/svg">
<path d="M43.6689 14.4493V9.03082H46.604V0H59.4729V5.41849H52.9255V9.03082H58.1183V14.4493H52.9255V31.6079H46.604V14.4493H43.6689Z" fill="#1F1F1F"/>
<path d="M62.5141 28.9438C60.4972 26.6861 59.4888 23.736 59.4888 20.0936C59.4888 16.4511 60.4972 13.5161 62.5141 11.2885C64.5611 9.03082 67.0897 7.90197 70.1 7.90197C72.1169 7.90197 73.9381 8.50403 75.5636 9.70814C76.256 10.2801 76.843 10.8821 77.3246 11.5143H77.5504V8.57928H83.872V31.6079H77.5504V28.6729H77.3246C76.843 29.305 76.256 29.9071 75.5636 30.479C73.9381 31.6831 72.1169 32.2852 70.1 32.2852C67.0897 32.2852 64.5611 31.1714 62.5141 28.9438ZM67.6165 15.1266C66.5629 16.3307 66.0361 17.9864 66.0361 20.0936C66.0361 22.2008 66.5629 23.8564 67.6165 25.0605C68.6701 26.2646 70.0247 26.8667 71.6804 26.8667C73.4263 26.8667 74.8412 26.2797 75.9249 25.1057C77.0086 23.9016 77.5504 22.2309 77.5504 20.0936C77.5504 17.9563 77.0086 16.3006 75.9249 15.1266C74.8412 13.9225 73.4263 13.3205 71.6804 13.3205C70.0247 13.3205 68.6701 13.9225 67.6165 15.1266Z" fill="#1F1F1F"/>
<path d="M87.7101 31.6079V0H94.0317V17.1586H96.7409L102.837 8.57928H109.836L102.385 19.1905L110.513 31.6079H103.288L97.4182 22.5771H94.0317V31.6079H87.7101Z" fill="#1F1F1F"/>
<path d="M110.95 13.9978V8.57928H113.885V3.61233H120.207V8.57928H126.709V13.9978H120.207V26.1894H126.98V31.6079H113.885V13.9978H110.95Z" fill="#1F1F1F"/>
<path d="M131.474 28.7632C129.066 26.3851 127.862 23.4952 127.862 20.0936C127.862 16.692 129.066 13.8172 131.474 11.4691C133.883 9.09103 136.893 7.90197 140.505 7.90197C144.087 7.90197 147.083 9.09103 149.491 11.4691C151.929 13.8172 153.148 16.692 153.148 20.0936C153.148 23.4952 151.929 26.3851 149.491 28.7632C147.083 31.1112 144.087 32.2852 140.505 32.2852C136.893 32.2852 133.883 31.1112 131.474 28.7632ZM136.17 15.2169C134.996 16.4813 134.409 18.1068 134.409 20.0936C134.409 22.0804 134.996 23.7059 136.17 24.9702C137.344 26.2345 138.789 26.8667 140.505 26.8667C142.221 26.8667 143.666 26.2345 144.84 24.9702C146.014 23.7059 146.601 22.0804 146.601 20.0936C146.601 18.1068 146.014 16.4813 144.84 15.2169C143.666 13.9526 142.221 13.3205 140.505 13.3205C138.789 13.3205 137.344 13.9526 136.17 15.2169Z" fill="#1F1F1F"/>
<path d="M155.873 31.6079V8.57928H162.195V11.9658H162.421C162.692 11.2434 163.098 10.6112 163.64 10.0694C164.874 8.77495 166.424 8.12774 168.291 8.12774H171V14.2235H167.613C165.898 14.2235 164.558 14.6901 163.595 15.6233C162.662 16.5264 162.195 17.7907 162.195 19.4163V31.6079H155.873Z" fill="#1F1F1F"/>
<path fill-rule="evenodd" clip-rule="evenodd" d="M15.7813 0C7.06552 0 0 7.06552 0 15.7813H15.7813V15.7814C24.497 15.7814 31.5625 8.71585 31.5625 9.91821e-05H15.7813V0Z" fill="#FD833A"/>
<path fill-rule="evenodd" clip-rule="evenodd" d="M15.7813 15.7811C7.06552 15.7811 0 22.8466 0 31.5624H15.7813V31.5625C24.497 31.5625 31.5625 24.497 31.5625 15.7812H15.7813V15.7811Z" fill="#FD833A"/>
</svg>
